Coordinates
version=1
nRows=14
nColumns=36
inDegrees=yes

Units are S.I. units (second, meters, Newtons, ...)
If the header above contains a line with 'inDegrees', this indicates whether rotational values are in degrees (yes) or radians (no).

endheader
time	pelvis_tilt	pelvis_list	pelvis_rotation	pelvis_tx	pelvis_ty	pelvis_tz	hip_flexion_r	hip_adduction_r	hip_rotation_r	knee_angle_r	knee_angle_r_beta	ankle_angle_r	subtalar_angle_r	mtp_angle_r	hip_flexion_l	hip_adduction_l	hip_rotation_l	knee_angle_l	knee_angle_l_beta	ankle_angle_l	subtalar_angle_l	mtp_angle_l	lumbar_extension	lumbar_bending	lumbar_rotation	arm_flex_r	arm_add_r	arm_rot_r	elbow_flex_r	pro_sup_r	arm_flex_l	arm_add_l	arm_rot_l	elbow_flex_l	pro_sup_l
      0.00000000	      2.74122775	     -1.98193041	      5.37688677	      0.44264448	      1.25430614	     -0.22662278	     -3.99908711	      2.61760523	      3.92234536	      4.76933152	      0.08324054	      5.60339900	     -6.67579462	     -5.76893202	     -6.95508660	     -2.84750524	      0.30183904	      3.26126189	      0.05691976	     13.45265853	     -1.14822605	     -5.76893202	     -1.74997099	      3.12724699	     -0.84723582	      0.60542365	    -12.35964867	      6.57789614	     23.87639940	     87.99091603	     -3.69968060	    -12.27263348	      1.59599254	     21.33962249	     87.97911252
      0.01666670	      2.52862104	     -1.42848258	      4.96420741	      0.44097233	      1.25232763	     -0.22760469	     -3.76962670	      1.88262426	      4.30742441	      5.00774382	      0.08740162	      7.60741784	     -5.87540691	     -5.97527464	     -6.88781740	     -2.13283161	     -0.58750484	      3.03025541	      0.05288793	     12.77302797	     -1.13168469	     -5.97527464	     -1.52281198	      2.66671747	     -0.76766379	      1.31421353	    -12.83053621	      8.94841493	     22.86879844	     90.99906363	     -4.18647345	    -12.51595691	      2.31444018	     21.76509738	     90.58842509
      0.03333330	      3.52920359	     -1.38545323	      4.57239396	      0.43762154	      1.25435428	     -0.22773353	     -4.50733372	      1.90903593	      4.32394901	      5.60547880	      0.09783406	      8.07296365	     -5.03288088	     -6.20274708	     -8.19713839	     -2.04530467	     -1.54371136	      2.46846183	      0.04308279	     12.35617798	     -1.28320144	     -6.20274708	     -3.16918596	      2.82799167	     -0.67513523	      2.00800709	    -13.43042699	     10.02257647	     23.42987510	     93.35905172	     -3.17524007	    -12.54275252	      2.29212401	     21.80500918	     93.08511682
      0.05000000	      4.88911084	     -1.10825369	      4.34966486	      0.43479533	      1.25531795	     -0.22780052	     -5.70065847	      1.63697388	      3.91281710	      5.99882388	      0.10469923	      8.61792775	     -4.42022959	     -6.38712406	     -9.53960561	     -1.78267274	     -2.48948631	      2.33496601	      0.04075284	     12.00588574	     -1.44057491	     -6.38712406	     -5.24233146	      2.73979542	     -0.47331925	      2.47465519	    -13.75564331	     10.01447661	     24.68070218	     91.26954894	     -2.65977764	    -12.67532846	      2.25055815	     23.25819644	     91.09757003
      0.06666670	      5.95030020	     -0.86814199	      3.98851747	      0.43191427	      1.25663872	     -0.22766856	     -6.40876512	      1.42330224	      3.97700504	      6.54559645	      0.11424221	      9.22288351	     -4.15692733	     -6.62061884	    -10.60157558	     -1.49493784	     -3.01478601	      2.23843727	      0.03906810	     11.66616660	     -1.66513464	     -6.62061884	     -6.66443246	      2.59266171	     -0.12591070	      3.66763267	    -13.85791025	     11.34732033	     23.42379155	     91.62711695	     -1.27916634	    -12.68530689	      3.44707444	     22.47708401	     91.94792128
      0.08333330	      6.97865396	     -0.64603145	      3.88250284	      0.42972797	      1.25794041	     -0.22737238	     -7.18514620	      1.22982040	      3.85173323	      6.90566290	      0.12052655	      9.67543636	     -3.74009155	     -6.94127578	    -11.59821898	     -1.31607188	     -3.36982089	      2.14857403	      0.03749969	     11.27164859	     -1.74040344	     -6.94127578	     -8.27517835	      2.42243707	      0.10112832	      3.70193533	    -14.25772108	     11.75110597	     24.78251867	     94.10719111	     -0.72555525	    -13.03761344	      4.43176574	     23.67445943	     95.77444123
      0.10000000	      7.66130331	     -0.49253488	      3.80803080	      0.41986526	      1.25867685	     -0.22358051	     -7.59701069	      1.13968509	      3.97774017	      7.13191869	      0.12447546	      9.65193229	     -3.97010494	     -6.95354415	    -12.12046333	     -1.23463470	     -3.65064036	      2.21715884	      0.03869672	     10.95129988	     -1.84773079	     -6.95354415	     -9.55428575	      2.23652648	      0.29471327	      4.10694903	    -14.23021160	     11.46513342	     25.23362411	     94.22406570	      0.06410327	    -13.17651161	      4.15412744	     24.29631540	     95.98127219
      0.11666670	      8.07953774	     -0.39396574	      3.76893825	      0.41898857	      1.25920313	     -0.22335566	     -7.79933508	      1.08886427	      3.98336022	      7.31246949	      0.12762667	      9.49273103	     -4.11570079	     -7.16913331	    -12.37135954	     -1.20956354	     -3.88972329	      2.35908099	      0.04117373	     10.63081395	     -1.96360353	     -7.16913331	    -10.58044710	      2.06483821	      0.75995889	      3.80202837	    -14.25916304	      9.42081201	     27.02277817	     96.13998038	      0.71373486	    -13.32625593	      3.89830375	     25.09107416	     99.27392127
      0.13333330	      8.37465576	     -0.33963276	      3.74005529	      0.41798429	      1.25656523	     -0.22331008	     -7.96591949	      1.07606644	      3.98467790	      7.40891544	      0.12930997	      9.26668769	     -4.24647633	     -7.28110164	    -12.54809776	     -1.22017866	     -3.99384469	      2.49625345	      0.04356784	     10.38816905	     -2.13830451	     -7.28110164	    -11.34560021	      1.91985015	      0.74790886	      3.84173449	    -14.30731299	      8.83946137	     27.91358587	     96.42729471	      1.00550481	    -13.50082789	      3.62901381	     25.74482089	     99.77968417
      0.15000000	      8.59428923	     -0.30048193	      3.81652142	      0.41762702	      1.25695977	     -0.22329224	     -8.11736080	      1.09095065	      3.81586741	      7.46745015	      0.13033159	      9.08831409	     -4.23017360	     -7.38143929	    -12.64638531	     -1.24620312	     -4.04841050	      2.61996018	      0.04572693	     10.22295623	     -2.25379943	     -7.38143929	    -11.98346623	      1.81359332	      0.73219446	      3.74925252	    -14.33651501	      8.18495859	     28.73469775	     96.75781292	      1.28448230	    -13.65893387	      3.75642196	     26.21286889	    100.35298542
      0.16666670	      8.78275532	     -0.29197380	      3.89101520	      0.41716912	      1.26010003	     -0.22346698	     -8.30980679	      1.12741342	      3.60629044	      7.46934738	      0.13036470	      8.88801632	     -4.15892345	     -7.39888878	    -12.78495193	     -1.29337554	     -4.09125278	      2.69169250	      0.04697890	      9.98560678	     -2.41863354	     -7.39888878	    -12.66930141	      1.74229324	      0.61222288	      3.39572621	    -14.50536372	      8.06163503	     30.35644074	     94.42232760	      1.02325823	    -13.86142314	      3.75935203	     27.69949238	     98.05058146
      0.18333330	      8.82053835	     -0.28344860	      3.94237875	      0.41712697	      1.26020755	     -0.22333651	     -8.33103760	      1.17635863	      3.44722249	      7.50970146	      0.13106902	      8.66498705	     -4.37939376	     -7.45586290	    -12.74041770	     -1.32027894	     -4.07506263	      2.82028577	      0.04922327	      9.93056204	     -2.38237180	     -7.45586290	    -12.80667151	      1.70574319	      0.48192136	      3.79448970	    -14.36640504	      7.72542322	     29.62768209	     97.25791244	      1.38023833	    -13.84811776	      3.65540375	     26.90969323	    100.88942949
      0.20000000	      8.88458549	     -0.29087382	      4.03530487	      0.41682536	      1.26019239	     -0.22345577	     -8.43945654	      1.24170713	      3.34430348	      7.45535747	      0.13012053	      8.48109609	     -4.47421322	     -7.45828413	    -12.79535029	     -1.36395801	     -4.06459917	      2.90125244	      0.05063641	      9.86046827	     -2.34048958	     -7.45828413	    -13.05619877	      1.69058424	      0.29120347	      3.62187039	    -14.40201113	      7.62475052	     30.22878066	     96.62721245	      1.15840213	    -13.98748784	      3.63734230	     27.27080761	    100.28870778
      0.21666670	      8.92310755	     -0.29088078	      4.01828964	      0.41711441	      1.26018644	     -0.22342535	     -8.51596525	      1.28162167	      3.21914320	      7.41505859	      0.12941719	      8.25175785	     -4.64464599	     -7.46553025	    -12.82064032	     -1.36713214	     -4.07761816	      3.00908732	      0.05251848	      9.81133335	     -2.41404937	     -7.46553025	    -13.17385209	      1.66911454	      0.14560147	      3.57191127	    -14.39067982	      7.63200910	     30.44002198	     95.64588103	      1.15151692	    -14.03822245	      3.93682257	     27.18488685	     99.44856627
